<svg width="15" height="10" viewBox="0 0 15 10" fill="none" xmlns="http://www.w3.org/2000/svg">
<path d="M14.967 4.80324C14.9454 4.75366 14.4166 3.58098 13.2357 2.40003C12.1399 1.30552 10.2572 0 7.5 0C4.74276 0 2.86011 1.30552 1.76434 2.40003C0.583389 3.58098 0.0545689 4.75175 0.0329585 4.80324C0.0112288 4.85205 0 4.90489 0 4.95832C0 5.01176 0.0112288 5.0646 0.0329585 5.11341C0.0545689 5.16235 0.583389 6.33504 1.76434 7.51598C2.86011 8.61049 4.74276 9.91538 7.5 9.91538C10.2572 9.91538 12.1399 8.61049 13.2357 7.51598C14.4166 6.33504 14.9454 5.16426 14.967 5.11341C14.9888 5.0646 15 5.01176 15 4.95832C15 4.90489 14.9888 4.85205 14.967 4.80324ZM7.5 9.15266C5.50548 9.15266 3.76394 8.4268 2.32303 6.99606C1.71902 6.39575 1.20789 5.70874 0.806485 4.95769C1.20778 4.20676 1.71893 3.51995 2.32303 2.91995C3.76394 1.48858 5.50548 0.762721 7.5 0.762721C9.49452 0.762721 11.2361 1.48858 12.677 2.91995C13.2811 3.51995 13.7922 4.20676 14.1935 4.95769C13.7886 5.73376 11.7585 9.15266 7.5 9.15266ZM7.5 2.03392C6.92173 2.03392 6.35645 2.2054 5.87564 2.52667C5.39483 2.84793 5.02009 3.30456 4.79879 3.83881C4.5775 4.37306 4.5196 4.96093 4.63242 5.52809C4.74523 6.09524 5.02369 6.61621 5.43259 7.0251C5.84148 7.434 6.36245 7.71246 6.9296 7.82527C7.49676 7.93809 8.08463 7.88019 8.61888 7.6589C9.15313 7.4376 9.60975 7.06286 9.93102 6.58205C10.2523 6.10123 10.4238 5.53595 10.4238 4.95769C10.4228 4.18257 10.1144 3.43948 9.5663 2.89139C9.01821 2.3433 8.27512 2.03493 7.5 2.03392ZM7.5 7.11873C7.07259 7.11873 6.65477 6.99199 6.29939 6.75453C5.94401 6.51707 5.66702 6.17956 5.50346 5.78468C5.33989 5.3898 5.2971 4.95529 5.38048 4.53609C5.46386 4.11689 5.66968 3.73183 5.97191 3.4296C6.27414 3.12737 6.6592 2.92155 7.0784 2.83817C7.4976 2.75478 7.93212 2.79758 8.327 2.96114C8.72187 3.12471 9.05938 3.4017 9.29684 3.75708C9.5343 4.11246 9.66104 4.53027 9.66104 4.95769C9.66104 5.53083 9.43336 6.0805 9.02809 6.48578C8.62281 6.89105 8.07315 7.11873 7.5 7.11873Z" fill="#355F38"/>
</svg>
