<svg width="139" height="22" viewBox="0 0 139 22" fill="none" xmlns="http://www.w3.org/2000/svg">
<path d="M4.6892 18.176C3.1492 18.176 1.79987 17.9487 0.641203 17.494L1.1472 14.876C2.2032 15.2573 3.22987 15.448 4.2272 15.448C4.96054 15.448 5.3272 15.2427 5.3272 14.832C5.3272 14.6267 5.2172 14.458 4.9972 14.326C4.79187 14.194 4.39587 14.0767 3.8092 13.974C2.59187 13.7393 1.71187 13.3433 1.1692 12.786C0.641203 12.2287 0.377203 11.4367 0.377203 10.41C0.43587 9.25133 0.89787 8.364 1.7632 7.748C2.62854 7.132 3.8092 6.824 5.3052 6.824C6.06787 6.824 6.72054 6.87533 7.2632 6.978C7.82054 7.066 8.32654 7.22 8.7812 7.44L8.3192 10.058C7.89387 9.89667 7.42454 9.772 6.9112 9.684C6.41254 9.596 5.99454 9.552 5.6572 9.552C5.15854 9.552 4.81387 9.60333 4.6232 9.706C4.43254 9.80867 4.3372 9.948 4.3372 10.124C4.3372 10.4467 4.70387 10.674 5.4372 10.806C6.77187 11.0407 7.7692 11.4513 8.4292 12.038C9.0892 12.6247 9.4192 13.424 9.4192 14.436C9.4192 15.5947 9.00854 16.5113 8.1872 17.186C7.38054 17.846 6.21454 18.176 4.6892 18.176ZM14.9173 18.176C13.6853 18.176 12.7246 17.78 12.0353 16.988C11.346 16.196 11.0013 15.118 11.0013 13.754V6.978H15.6653V13.556C15.6653 13.8933 15.7533 14.1573 15.9293 14.348C16.12 14.524 16.362 14.612 16.6553 14.612C16.9486 14.612 17.2493 14.524 17.5573 14.348L17.7993 17.406C17.4766 17.6553 17.0513 17.846 16.5233 17.978C16.01 18.11 15.4746 18.176 14.9173 18.176ZM13.3333 5.328C12.644 5.328 12.0573 5.11533 11.5733 4.69C11.104 4.25 10.8693 3.71467 10.8693 3.084C10.8693 2.45333 11.1186 1.92533 11.6173 1.5C12.116 1.07467 12.688 0.861999 13.3333 0.861999C14.008 0.861999 14.5873 1.082 15.0713 1.522C15.57 1.962 15.8193 2.48267 15.8193 3.084C15.8193 3.72933 15.57 4.26467 15.0713 4.69C14.5726 5.11533 13.9933 5.328 13.3333 5.328ZM19.0805 7.132H23.5025V9.376C24.0011 8.51067 24.5658 7.87267 25.1965 7.462C25.8418 7.03667 26.6045 6.824 27.4845 6.824C28.3498 6.824 29.0978 7.044 29.7285 7.484C30.3738 7.90933 30.8578 8.48867 31.1805 9.222C32.1191 7.62333 33.4831 6.824 35.2725 6.824C36.1231 6.824 36.8638 7.05133 37.4945 7.506C38.1398 7.96067 38.6385 8.62067 38.9905 9.486C39.3425 10.3367 39.5185 11.3413 39.5185 12.5V18H34.8765V12.5C34.8765 11.752 34.7445 11.1873 34.4805 10.806C34.2311 10.4247 33.8791 10.234 33.4245 10.234C32.9258 10.234 32.4931 10.4467 32.1265 10.872C31.7745 11.2973 31.5985 11.8107 31.5985 12.412V18H27.0005V12.5C27.0005 11.752 26.8685 11.1873 26.6045 10.806C26.3551 10.4247 25.9958 10.234 25.5265 10.234C25.0278 10.234 24.6025 10.4467 24.2505 10.872C23.8985 11.2973 23.7225 11.8107 23.7225 12.412V18H19.0805V7.132ZM41.6605 7.132H46.3025V9.046C47.0065 7.56467 48.2019 6.824 49.8885 6.824C50.8712 6.824 51.7732 7.07333 52.5945 7.572C53.4305 8.056 54.0832 8.73067 54.5525 9.596C55.0365 10.4613 55.2785 11.4293 55.2785 12.5C55.2785 13.5707 55.0292 14.5387 54.5305 15.404C54.0465 16.2693 53.3865 16.9513 52.5505 17.45C51.7292 17.934 50.8492 18.176 49.9105 18.176C48.2385 18.176 47.0359 17.4353 46.3025 15.954V20.86L41.6605 21.74V7.132ZM48.5025 14.7C49.1039 14.7 49.6172 14.48 50.0425 14.04C50.4679 13.6 50.6805 13.0867 50.6805 12.5C50.6805 11.884 50.4605 11.3633 50.0205 10.938C49.5952 10.5127 49.0892 10.3 48.5025 10.3C47.9012 10.3 47.3879 10.5127 46.9625 10.938C46.5372 11.3487 46.3245 11.84 46.3245 12.412V12.5C46.3245 13.116 46.5372 13.6367 46.9625 14.062C47.4025 14.4873 47.9159 14.7 48.5025 14.7ZM60.8294 18.176C59.5828 18.176 58.6148 17.7873 57.9254 17.01C57.2508 16.218 56.9134 15.14 56.9134 13.776V3.502L61.5554 2.82V13.446C61.5554 13.8567 61.6508 14.1573 61.8414 14.348C62.0468 14.524 62.3988 14.612 62.8974 14.612C63.2641 14.612 63.6234 14.524 63.9754 14.348L64.1294 17.428C63.1468 17.9267 62.0468 18.176 60.8294 18.176ZM70.9699 18.176C69.7525 18.176 68.6672 17.934 67.7139 17.45C66.7752 16.9513 66.0419 16.2767 65.5139 15.426C64.9859 14.5607 64.7219 13.5853 64.7219 12.5C64.7219 11.3853 64.9932 10.3953 65.5359 9.53C66.0785 8.66467 66.8119 7.99733 67.7359 7.528C68.6599 7.05867 69.6865 6.824 70.8159 6.824C71.9012 6.824 72.8252 7.066 73.5879 7.55C74.3652 8.01933 74.9445 8.66467 75.3259 9.486C75.7072 10.2927 75.8979 11.202 75.8979 12.214C75.8979 12.478 75.8832 12.6687 75.8539 12.786L69.2539 13.644C69.4299 14.1573 69.7159 14.5313 70.1119 14.766C70.5079 14.986 71.0285 15.096 71.6739 15.096C72.6712 15.096 73.7492 14.8393 74.9079 14.326L75.4579 17.274C74.0939 17.8753 72.5979 18.176 70.9699 18.176ZM72.4879 10.872C72.2532 9.948 71.6959 9.486 70.8159 9.486C70.2879 9.486 69.8699 9.684 69.5619 10.08C69.2539 10.476 69.0925 10.9893 69.0779 11.62L72.4879 10.872ZM78.8914 6.208H75.7454V2.864H87.1634V6.208H84.0174V18H78.8914V6.208ZM87.852 7.132H92.494V9.376C92.8313 8.51067 93.286 7.87267 93.858 7.462C94.4446 7.03667 95.1266 6.824 95.904 6.824L96.542 10.41C95.1486 10.41 94.122 10.564 93.462 10.872C92.8166 11.1653 92.494 11.6347 92.494 12.28V18H87.852V7.132ZM103.368 18.176C102.151 18.176 101.066 17.934 100.112 17.45C99.1736 16.9513 98.4403 16.2767 97.9123 15.426C97.3843 14.5607 97.1203 13.5853 97.1203 12.5C97.1203 11.3853 97.3916 10.3953 97.9343 9.53C98.477 8.66467 99.2103 7.99733 100.134 7.528C101.058 7.05867 102.085 6.824 103.214 6.824C104.3 6.824 105.224 7.066 105.986 7.55C106.764 8.01933 107.343 8.66467 107.724 9.486C108.106 10.2927 108.296 11.202 108.296 12.214C108.296 12.478 108.282 12.6687 108.252 12.786L101.652 13.644C101.828 14.1573 102.114 14.5313 102.51 14.766C102.906 14.986 103.427 15.096 104.072 15.096C105.07 15.096 106.148 14.8393 107.306 14.326L107.856 17.274C106.492 17.8753 104.996 18.176 103.368 18.176ZM104.886 10.872C104.652 9.948 104.094 9.486 103.214 9.486C102.686 9.486 102.268 9.684 101.96 10.08C101.652 10.476 101.491 10.9893 101.476 11.62L104.886 10.872ZM113.767 18.176C112.52 18.176 111.552 17.7873 110.863 17.01C110.188 16.218 109.851 15.14 109.851 13.776V3.502L114.493 2.82V13.446C114.493 13.8567 114.588 14.1573 114.779 14.348C114.984 14.524 115.336 14.612 115.835 14.612C116.202 14.612 116.561 14.524 116.913 14.348L117.067 17.428C116.084 17.9267 114.984 18.176 113.767 18.176ZM122.081 18.176C120.835 18.176 119.867 17.7873 119.177 17.01C118.503 16.218 118.165 15.14 118.165 13.776V3.502L122.807 2.82V13.446C122.807 13.8567 122.903 14.1573 123.093 14.348C123.299 14.524 123.651 14.612 124.149 14.612C124.516 14.612 124.875 14.524 125.227 14.348L125.381 17.428C124.399 17.9267 123.299 18.176 122.081 18.176ZM132.31 18.176C131.078 18.176 129.978 17.934 129.01 17.45C128.056 16.966 127.308 16.2987 126.766 15.448C126.238 14.5827 125.974 13.5927 125.974 12.478C125.974 11.3633 126.245 10.3807 126.788 9.53C127.33 8.66467 128.078 7.99733 129.032 7.528C130 7.05867 131.1 6.824 132.332 6.824C133.578 6.824 134.678 7.066 135.632 7.55C136.6 8.01933 137.348 8.67933 137.876 9.53C138.404 10.3807 138.668 11.3633 138.668 12.478C138.668 13.6073 138.396 14.6047 137.854 15.47C137.326 16.3207 136.578 16.988 135.61 17.472C134.656 17.9413 133.556 18.176 132.31 18.176ZM132.354 14.876C132.955 14.876 133.446 14.656 133.828 14.216C134.224 13.7613 134.422 13.182 134.422 12.478C134.422 11.774 134.224 11.202 133.828 10.762C133.446 10.3073 132.955 10.08 132.354 10.08C131.752 10.08 131.254 10.3073 130.858 10.762C130.476 11.202 130.286 11.774 130.286 12.478C130.286 13.182 130.476 13.7613 130.858 14.216C131.254 14.656 131.752 14.876 132.354 14.876Z" fill="#8FBC8F"/>
</svg>
